<?xml version="1.0" encoding="UTF-8"?>
<svg id="Layer_2" data-name="Layer 2" xmlns="http://www.w3.org/2000/svg" viewBox="0 0 301.7 58.93">
  <defs>
    <style>
      .cls-1 {
        letter-spacing: -.08em;
      }

      .cls-2, .cls-3, .cls-4 {
        fill: #fff;
      }

      .cls-5 {
        letter-spacing: -.13em;
      }

      .cls-6 {
        letter-spacing: 0em;
      }

      .cls-7 {
        letter-spacing: -.13em;
      }

      .cls-3 {
        font-size: 13px;
      }

      .cls-3, .cls-4 {
        font-family: FONTSPRINGDEMO-PGF-NowBookRegular, 'FONTSPRING DEMO - PGF-Now Book';
      }

      .cls-4 {
        font-size: 47px;
      }

      .cls-8 {
        letter-spacing: 0em;
      }

      .cls-9 {
        fill: #3e4649;
      }

      .cls-9, .cls-10, .cls-11, .cls-12 {
        fill-rule: evenodd;
      }

      .cls-10 {
        fill: #41abb9;
      }

      .cls-11 {
        fill: #de5066;
      }

      .cls-12 {
        fill: #ffc446;
      }

      .cls-13 {
        letter-spacing: -.04em;
      }
    </style>
  </defs>
  <g id="Layer_1-2" data-name="Layer 1">
    <g>
      <text class="cls-4" transform="translate(59.91 38.07)"><tspan x="0" y="0">TECHDO</tspan><tspan class="cls-13" x="158.72" y="0">O</tspan><tspan x="188.51" y="0">Z</tspan><tspan class="cls-8" x="212.16" y="0">Y</tspan></text>
      <text class="cls-3" transform="translate(60.71 53.05)"><tspan x="0" y="0">INSPIR</tspan><tspan class="cls-5" x="31.07" y="0">A</tspan><tspan x="37.17" y="0" xml:space="preserve">TION    INN</tspan><tspan class="cls-6" x="90.56" y="0">O</tspan><tspan class="cls-1" x="99.17" y="0">V</tspan><tspan class="cls-5" x="105.7" y="0">A</tspan><tspan x="111.8" y="0" xml:space="preserve">TION    IMPLEMEN</tspan><tspan class="cls-7" x="199.14" y="0">T</tspan><tspan class="cls-5" x="203.38" y="0">A</tspan><tspan x="209.48" y="0">TION</tspan></text>
      <rect class="cls-2" x="126.04" y="47.39" width="4.14" height="4.14" rx="2.07" ry="2.07"/>
      <rect class="cls-2" x="200.04" y="47.39" width="4.14" height="4.14" rx="2.07" ry="2.07"/>
      <g>
        <path id="path4" class="cls-9" d="M23.78,3.57c-.75,.56-1.43,1.02-1.51,1.02-.23,0-2.17,1.82-2.51,2.34-.17,.26-.81,1.01-1.42,1.66s-1.12,1.26-1.12,1.35-.11,.29-.25,.44c-.14,.15-.45,.66-.7,1.12s-.59,1.11-.76,1.44c-.54,1.02-.83,1.75-1.19,2.98-.19,.66-.41,1.42-.5,1.7-.08,.28-.29,1.22-.46,2.08l-.31,1.57-.88,.61c-1.51,1.04-3.5,3.11-5.29,5.49-.38,.5-1.84,3.42-2.3,4.57-.15,.38-.44,1.1-.64,1.62-.2,.52-.37,1.21-.37,1.54s-.07,.68-.17,.77c-.24,.24-.56,4.87-.37,5.37,.63,1.66,5.14,3.91,8.89,4.44,3.4,.48,9.55,0,11.81-.91,1-.4,2.31-.42,4.04-.05,.7,.15,1.62,.34,2.05,.42,.42,.08,1.11,.27,1.53,.42,.87,.31,4.05,.61,5.55,.51,.56-.04,1.59-.1,2.28-.15,1.86-.12,4.15-.87,7.62-2.49,1.23-.57,1.94-1.47,2.12-2.67,.29-1.93-.96-7.79-2.17-10.19-1.08-2.12-1.7-3.13-2.46-4.02-.45-.52-.83-1-.83-1.05,0-.13-2.22-2.34-2.36-2.35-.06,0-.59-.45-1.19-.99q-1.17-1.07-1.57-3.84c-.27-1.86-1.7-5.63-2.57-6.73-.18-.22-.32-.52-.32-.66s-.21-.5-.47-.81c-.26-.3-.96-1.18-1.56-1.94-.6-.76-1.18-1.39-1.28-1.39s-.4-.27-.66-.6c-.89-1.11-3.96-3.26-4.89-3.42-.33-.05-.79-.13-1.02-.18-.32-.06-.76,.17-1.79,.95m3.19,5.63c1.62,1.07,3.54,3.53,4.87,6.22,1.28,2.59,1.27,2.61-1.44,2.31-4.26-.47-8.59-.34-9.83,.28-1.34,.68-1.54-.03-.6-2.2,.27-.63,.49-1.2,.49-1.28s.29-.5,.64-.94c.35-.44,.83-1.08,1.07-1.43,.23-.35,.96-1.14,1.61-1.76,.65-.62,1.3-1.26,1.44-1.42,.38-.43,.87-.37,1.76,.21m3.12,13.82c1.16,.31,2.88,1.03,3.18,1.32,.31,.3,.1,2.4-.31,3.18-.1,.19-.23,.68-.3,1.1-.06,.42-.22,.88-.34,1.02-.12,.14-.48,.84-.8,1.54-1.03,2.31-4.66,6.31-5.73,6.31-.18,0-3.57-3.3-4.36-4.25-.16-.2-.61-1.07-1-1.93-.38-.87-.84-1.88-1.01-2.26-.89-1.95-1.12-4.06-.54-4.86,.6-.81,.67-.85,1.74-.85,.52,0,1.02-.07,1.11-.16,.36-.35,7.14-.49,8.34-.17m-16.79,5.44c.42,.22,1.46,2.55,1.78,3.96,.06,.25,.29,.75,.53,1.09,.23,.34,.42,.68,.42,.76,0,.22,1.5,2.4,2.22,3.23,1.99,2.3,2.18,2.65,1.49,2.81-.21,.05-.73,.16-1.15,.25-2.97,.65-9.72-.47-10.22-1.7-.19-.47-.1-1.51,.18-2.06,.08-.15,.26-.83,.4-1.51,.15-.72,.43-1.46,.67-1.77,.22-.29,.46-.8,.53-1.13,.15-.73,.84-1.78,1.47-2.22,.25-.18,.52-.54,.58-.8,.21-.84,.61-1.16,1.11-.9m25.71-.01c.97,.52,3.95,5.8,3.95,6.99,0,.2,.12,.64,.26,.97,.38,.92,.35,3.13-.04,3.12-.16,0-.83,.16-1.49,.35-1.97,.59-2.15,.63-3.86,.85-1.32,.17-2,.17-3.39,0-3.22-.39-3.32-.63-1.22-2.83,.63-.66,1.75-2.09,2.07-2.64,.13-.23,.51-.89,.83-1.45,.32-.56,.69-1.33,.81-1.7,.27-.83,1.3-3.33,1.5-3.62,.16-.25,.22-.26,.6-.06"/>
        <path id="path3" class="cls-10" d="M4.74,10.23c-5.56,.98-6.51,9.03-1.35,11.45,2.03,.96,3.36,.89,5.66-.26,6.07-3.05,2.46-12.39-4.31-11.19"/>
        <path id="path3-2" data-name="path3" class="cls-11" d="M25.34,46.67c-5.56,.98-6.51,9.03-1.35,11.45,2.03,.96,3.36,.89,5.66-.26,6.07-3.05,2.46-12.39-4.31-11.19"/>
        <path id="path3-3" data-name="path3" class="cls-12" d="M45.09,11.21c-5.56,.98-6.51,9.03-1.35,11.45,2.03,.96,3.36,.89,5.66-.26,6.07-3.05,2.46-12.39-4.31-11.19"/>
      </g>
    </g>
  </g>
</svg>