<?xml version="1.0" encoding="UTF-8"?>
<svg id="Layer_2" data-name="Layer 2" xmlns="http://www.w3.org/2000/svg" viewBox="0 0 301.7 58.93">
  <defs>
    <style>
      .cls-1 {
        fill: #fff;
      }

      .cls-2 {
        fill: #3e4649;
      }

      .cls-2, .cls-3, .cls-4, .cls-5 {
        fill-rule: evenodd;
      }

      .cls-3 {
        fill: #41abb9;
      }

      .cls-4 {
        fill: #de5066;
      }

      .cls-5 {
        fill: #ffc446;
      }
    </style>
  </defs>
  <g id="Layer_1-2" data-name="Layer 1-2">
    <g>
      <path class="cls-1" d="M128.11,47.39h0c1.14,0,2.07,.93,2.07,2.07h0c0,1.14-.93,2.07-2.07,2.07h0c-1.14,0-2.07-.93-2.07-2.07h0c0-1.14,.93-2.07,2.07-2.07Z"/>
      <path class="cls-1" d="M202.11,47.39h0c1.14,0,2.07,.93,2.07,2.07h0c0,1.14-.93,2.07-2.07,2.07h0c-1.14,0-2.07-.93-2.07-2.07h0c0-1.14,.93-2.07,2.07-2.07Z"/>
      <g>
        <path id="path4" class="cls-2" d="M23.78,3.57c-.75,.56-1.43,1.02-1.51,1.02-.23,0-2.17,1.82-2.51,2.34-.17,.26-.81,1.01-1.42,1.66s-1.12,1.26-1.12,1.35-.11,.29-.25,.44-.45,.66-.7,1.12-.59,1.11-.76,1.44c-.54,1.02-.83,1.75-1.19,2.98-.19,.66-.41,1.42-.5,1.7-.08,.28-.29,1.22-.46,2.08l-.31,1.57-.88,.61c-1.51,1.04-3.5,3.11-5.29,5.49-.38,.5-1.84,3.42-2.3,4.57-.15,.38-.44,1.1-.64,1.62-.2,.52-.37,1.21-.37,1.54s-.07,.68-.17,.77c-.24,.24-.56,4.87-.37,5.37,.63,1.66,5.14,3.91,8.89,4.44,3.4,.48,9.55,0,11.81-.91,1-.4,2.31-.42,4.04-.05,.7,.15,1.62,.34,2.05,.42,.42,.08,1.11,.27,1.53,.42,.87,.31,4.05,.61,5.55,.51,.56-.04,1.59-.1,2.28-.15,1.86-.12,4.15-.87,7.62-2.49,1.23-.57,1.94-1.47,2.12-2.67,.29-1.93-.96-7.79-2.17-10.19-1.08-2.12-1.7-3.13-2.46-4.02-.45-.52-.83-1-.83-1.05,0-.13-2.22-2.34-2.36-2.35-.06,0-.59-.45-1.19-.99-.78-.71-1.3-1.99-1.57-3.84-.27-1.86-1.7-5.63-2.57-6.73-.18-.22-.32-.52-.32-.66s-.21-.5-.47-.81c-.26-.3-.96-1.18-1.56-1.94-.6-.76-1.18-1.39-1.28-1.39s-.4-.27-.66-.6c-.89-1.11-3.96-3.26-4.89-3.42-.33-.05-.79-.13-1.02-.18-.32-.06-.76,.17-1.79,.95m3.19,5.63c1.62,1.07,3.54,3.53,4.87,6.22,1.28,2.59,1.27,2.61-1.44,2.31-4.26-.47-8.59-.34-9.83,.28-1.34,.68-1.54-.03-.6-2.2,.27-.63,.49-1.2,.49-1.28s.29-.5,.64-.94c.35-.44,.83-1.08,1.07-1.43,.23-.35,.96-1.14,1.61-1.76,.65-.62,1.3-1.26,1.44-1.42,.38-.43,.87-.37,1.76,.21m3.12,13.82c1.16,.31,2.88,1.03,3.18,1.32,.31,.3,.1,2.4-.31,3.18-.1,.19-.23,.68-.3,1.1-.06,.42-.22,.88-.34,1.02-.12,.14-.48,.84-.8,1.54-1.03,2.31-4.66,6.31-5.73,6.31-.18,0-3.57-3.3-4.36-4.25-.16-.2-.61-1.07-1-1.93-.38-.87-.84-1.88-1.01-2.26-.89-1.95-1.12-4.06-.54-4.86,.6-.81,.67-.85,1.74-.85,.52,0,1.02-.07,1.11-.16,.36-.35,7.14-.49,8.34-.17m-16.79,5.44c.42,.22,1.46,2.55,1.78,3.96,.06,.25,.29,.75,.53,1.09,.23,.34,.42,.68,.42,.76,0,.22,1.5,2.4,2.22,3.23,1.99,2.3,2.18,2.65,1.49,2.81-.21,.05-.73,.16-1.15,.25-2.97,.65-9.72-.47-10.22-1.7-.19-.47-.1-1.51,.18-2.06,.08-.15,.26-.83,.4-1.51,.15-.72,.43-1.46,.67-1.77,.22-.29,.46-.8,.53-1.13,.15-.73,.84-1.78,1.47-2.22,.25-.18,.52-.54,.58-.8,.21-.84,.61-1.16,1.11-.9m25.71-.01c.97,.52,3.95,5.8,3.95,6.99,0,.2,.12,.64,.26,.97,.38,.92,.35,3.13-.04,3.12-.16,0-.83,.16-1.49,.35-1.97,.59-2.15,.63-3.86,.85-1.32,.17-2,.17-3.39,0-3.22-.39-3.32-.63-1.22-2.83,.63-.66,1.75-2.09,2.07-2.64,.13-.23,.51-.89,.83-1.45,.32-.56,.69-1.33,.81-1.7,.27-.83,1.3-3.33,1.5-3.62,.16-.25,.22-.26,.6-.06"/>
        <path id="path3" class="cls-3" d="M4.74,10.23c-5.56,.98-6.51,9.03-1.35,11.45,2.03,.96,3.36,.89,5.66-.26,6.07-3.05,2.46-12.39-4.31-11.19"/>
        <path id="path3-2" class="cls-4" d="M25.34,46.67c-5.56,.98-6.51,9.03-1.35,11.45,2.03,.96,3.36,.89,5.66-.26,6.07-3.05,2.46-12.39-4.31-11.19"/>
        <path id="path3-3" class="cls-5" d="M45.09,11.21c-5.56,.98-6.51,9.03-1.35,11.45,2.03,.96,3.36,.89,5.66-.26,6.07-3.05,2.46-12.39-4.31-11.19"/>
      </g>
    </g>
  </g>
  <g>
    <path class="cls-1" d="M66.67,12.19h-9.22v-3.33h22.45v3.33h-9.27v27h-3.96V12.19Z"/>
    <path class="cls-1" d="M98.98,24.97h-11.79v10.94h13.14v3.28h-17.05V8.86h16.38v3.28h-12.46v9.58h11.79v3.24Z"/>
    <path class="cls-1" d="M126.61,38.2c-1.44,.72-4.32,1.44-8.01,1.44-8.55,0-14.98-5.4-14.98-15.34s6.43-15.93,15.84-15.93c3.78,0,6.16,.81,7.2,1.35l-.95,3.19c-1.48-.72-3.6-1.26-6.12-1.26-7.11,0-11.83,4.54-11.83,12.51,0,7.42,4.27,12.19,11.65,12.19,2.39,0,4.81-.5,6.39-1.26l.81,3.11Z"/>
    <path class="cls-1" d="M135.43,8.86v12.69h14.67V8.86h3.96v30.33h-3.96v-14.22h-14.67v14.22h-3.91V8.86h3.91Z"/>
    <path class="cls-1" d="M160.85,9.26c2.38-.36,5.22-.63,8.32-.63,5.62,0,9.63,1.3,12.28,3.78,2.7,2.48,4.28,5.98,4.28,10.89s-1.53,9-4.37,11.79c-2.83,2.83-7.51,4.37-13.41,4.37-2.79,0-5.13-.14-7.11-.36V9.26Zm3.91,26.82c.99,.18,2.43,.22,3.96,.22,8.37,0,12.92-4.68,12.92-12.87,.04-7.15-4-11.7-12.29-11.7-2.02,0-3.55,.18-4.59,.4v23.94Z"/>
    <path class="cls-1" d="M216.74,23.71c0,10.44-6.34,15.97-14.08,15.97s-13.63-6.21-13.63-15.39c0-9.63,5.98-15.93,14.08-15.93s13.63,6.34,13.63,15.34Zm-23.53,.5c0,6.48,3.51,12.29,9.67,12.29s9.72-5.72,9.72-12.6c0-6.03-3.15-12.33-9.67-12.33s-9.72,5.98-9.72,12.64Z"/>
    <path class="cls-1" d="M247.75,23.71c0,10.44-6.34,15.97-14.08,15.97s-13.63-6.21-13.63-15.39c0-9.63,5.98-15.93,14.08-15.93s13.63,6.34,13.63,15.34Zm-23.53,.5c0,6.48,3.51,12.29,9.67,12.29s9.72-5.72,9.72-12.6c0-6.03-3.15-12.33-9.67-12.33s-9.72,5.98-9.72,12.64Z"/>
    <path class="cls-1" d="M250.76,36.89l16.83-24.61v-.14h-15.39v-3.28h20.47v2.38l-16.74,24.52v.14h16.96v3.28h-22.14v-2.29Z"/>
    <path class="cls-1" d="M284.47,39.18v-12.87l-9.58-17.46h4.46l4.27,8.37c1.17,2.29,2.07,4.14,3.01,6.25h.09c.85-1.98,1.89-3.96,3.06-6.25l4.36-8.37h4.46l-10.17,17.41v12.91h-3.96Z"/>
  </g>
  <g>
    <path class="cls-1" d="M61.8,45.06v8.08h-1.04v-8.08h1.04Z"/>
    <path class="cls-1" d="M63.62,53.14v-8.08h1.14l2.59,4.09c.6,.95,1.07,1.8,1.45,2.63h.02c-.1-1.09-.12-2.07-.12-3.33v-3.38h.98v8.08h-1.06l-2.57-4.1c-.56-.9-1.1-1.82-1.51-2.7h-.04c.06,1.03,.08,2,.08,3.35v3.45h-.98Z"/>
    <path class="cls-1" d="M71.37,51.87c.47,.29,1.15,.53,1.87,.53,1.07,0,1.69-.56,1.69-1.38,0-.75-.43-1.19-1.52-1.61-1.32-.47-2.14-1.15-2.14-2.29,0-1.26,1.04-2.19,2.61-2.19,.83,0,1.43,.19,1.79,.4l-.29,.85c-.26-.14-.8-.38-1.54-.38-1.1,0-1.52,.66-1.52,1.21,0,.76,.49,1.13,1.61,1.56,1.37,.53,2.06,1.19,2.06,2.37,0,1.25-.92,2.33-2.83,2.33-.78,0-1.63-.23-2.06-.52l.26-.88Z"/>
    <path class="cls-1" d="M77.43,45.16c.5-.08,1.16-.16,2-.16,1.03,0,1.79,.24,2.27,.67,.44,.38,.71,.97,.71,1.69s-.22,1.31-.62,1.73c-.55,.59-1.45,.89-2.47,.89-.31,0-.6-.01-.84-.07v3.24h-1.04v-7.99Zm1.04,3.9c.23,.06,.52,.08,.86,.08,1.26,0,2.03-.61,2.03-1.73s-.76-1.58-1.91-1.58c-.46,0-.8,.04-.98,.08v3.14Z"/>
    <path class="cls-1" d="M84.86,45.06v8.08h-1.04v-8.08h1.04Z"/>
    <path class="cls-1" d="M86.69,45.17c.53-.11,1.28-.17,2-.17,1.12,0,1.83,.2,2.34,.66,.41,.36,.64,.91,.64,1.54,0,1.07-.67,1.77-1.52,2.06v.04c.62,.22,1,.79,1.19,1.63,.26,1.13,.46,1.91,.62,2.22h-1.08c-.13-.23-.31-.92-.54-1.93-.24-1.12-.67-1.54-1.62-1.57h-.98v3.5h-1.04v-7.98Zm1.04,3.68h1.07c1.12,0,1.82-.61,1.82-1.54,0-1.04-.76-1.5-1.86-1.51-.5,0-.86,.05-1.03,.1v2.95Z"/>
    <path class="cls-1" d="M94.51,50.6l-.84,2.54h-1.08l2.75-8.08h1.26l2.76,8.08h-1.12l-.86-2.54h-2.87Zm2.65-.82l-.79-2.33c-.18-.53-.3-1.01-.42-1.48h-.02c-.12,.48-.25,.97-.41,1.46l-.79,2.34h2.43Z"/>
    <path class="cls-1" d="M101.16,45.95h-2.46v-.89h5.98v.89h-2.47v7.2h-1.06v-7.2Z"/>
    <path class="cls-1" d="M106.63,45.06v8.08h-1.04v-8.08h1.04Z"/>
    <path class="cls-1" d="M115.36,49.02c0,2.78-1.69,4.26-3.75,4.26s-3.63-1.65-3.63-4.1,1.6-4.25,3.75-4.25,3.63,1.69,3.63,4.09Zm-6.27,.13c0,1.73,.94,3.27,2.58,3.27s2.59-1.52,2.59-3.36c0-1.61-.84-3.29-2.58-3.29s-2.59,1.59-2.59,3.37Z"/>
    <path class="cls-1" d="M116.72,53.14v-8.08h1.14l2.59,4.09c.6,.95,1.07,1.8,1.45,2.63h.02c-.1-1.09-.12-2.07-.12-3.33v-3.38h.98v8.08h-1.06l-2.57-4.1c-.56-.9-1.1-1.82-1.51-2.7h-.04c.06,1.03,.08,2,.08,3.35v3.45h-.98Z"/>
  </g>
  <g>
    <path class="cls-1" d="M134.36,45.06v8.08h-1.04v-8.08h1.04Z"/>
    <path class="cls-1" d="M136.18,53.14v-8.08h1.14l2.59,4.09c.6,.95,1.07,1.8,1.45,2.63h.02c-.1-1.09-.12-2.08-.12-3.33v-3.38h.98v8.08h-1.06l-2.57-4.1c-.56-.9-1.1-1.82-1.51-2.7h-.04c.06,1.03,.08,2,.08,3.35v3.45h-.98Z"/>
    <path class="cls-1" d="M144.08,53.14v-8.08h1.14l2.59,4.09c.6,.95,1.07,1.8,1.45,2.63h.02c-.1-1.09-.12-2.08-.12-3.33v-3.38h.98v8.08h-1.06l-2.57-4.1c-.56-.9-1.1-1.82-1.51-2.7h-.04c.06,1.03,.08,2,.08,3.35v3.45h-.98Z"/>
    <path class="cls-1" d="M158.88,49.02c0,2.78-1.69,4.26-3.75,4.26s-3.63-1.66-3.63-4.1c0-2.57,1.6-4.25,3.75-4.25s3.63,1.69,3.63,4.09Zm-6.27,.13c0,1.73,.93,3.27,2.58,3.27s2.59-1.52,2.59-3.36c0-1.61-.84-3.29-2.58-3.29s-2.59,1.59-2.59,3.37Z"/>
    <path class="cls-1" d="M162.02,53.14l-2.64-8.08h1.13l1.26,3.98c.35,1.09,.65,2.07,.86,3.02h.02c.23-.93,.56-1.95,.92-3.01l1.37-3.99h1.12l-2.89,8.08h-1.15Z"/>
    <path class="cls-1" d="M167.56,50.6l-.84,2.54h-1.08l2.75-8.08h1.26l2.76,8.08h-1.12l-.86-2.54h-2.87Zm2.65-.82l-.79-2.33c-.18-.53-.3-1.01-.42-1.47h-.02c-.12,.48-.25,.97-.41,1.46l-.79,2.34h2.43Z"/>
    <path class="cls-1" d="M174.21,45.95h-2.46v-.89h5.99v.89h-2.47v7.2h-1.06v-7.2Z"/>
    <path class="cls-1" d="M179.68,45.06v8.08h-1.04v-8.08h1.04Z"/>
    <path class="cls-1" d="M188.42,49.02c0,2.78-1.69,4.26-3.75,4.26s-3.63-1.66-3.63-4.1c0-2.57,1.59-4.25,3.75-4.25s3.63,1.69,3.63,4.09Zm-6.27,.13c0,1.73,.94,3.27,2.58,3.27s2.59-1.52,2.59-3.36c0-1.61-.84-3.29-2.58-3.29s-2.59,1.59-2.59,3.37Z"/>
    <path class="cls-1" d="M189.78,53.14v-8.08h1.14l2.59,4.09c.6,.95,1.07,1.8,1.45,2.63h.02c-.1-1.09-.12-2.08-.12-3.33v-3.38h.98v8.08h-1.06l-2.57-4.1c-.56-.9-1.1-1.82-1.51-2.7h-.04c.06,1.03,.08,2,.08,3.35v3.45h-.98Z"/>
  </g>
  <g>
    <path class="cls-1" d="M209.41,45.7v8.08h-1.04v-8.08h1.04Z"/>
    <path class="cls-1" d="M218.05,50.24c-.06-1.13-.13-2.48-.12-3.49h-.04c-.28,.95-.61,1.96-1.02,3.07l-1.43,3.92h-.79l-1.31-3.85c-.38-1.14-.71-2.18-.94-3.14h-.02c-.02,1.01-.08,2.36-.16,3.57l-.22,3.47h-1l.56-8.08h1.33l1.38,3.91c.34,1,.61,1.88,.82,2.72h.04c.2-.82,.49-1.7,.85-2.72l1.44-3.91h1.33l.5,8.08h-1.02l-.2-3.55Z"/>
    <path class="cls-1" d="M220.88,45.8c.5-.08,1.16-.16,2-.16,1.03,0,1.79,.24,2.27,.67,.44,.38,.71,.97,.71,1.69s-.22,1.31-.62,1.73c-.55,.59-1.45,.89-2.47,.89-.31,0-.6-.01-.84-.07v3.24h-1.04v-7.99Zm1.04,3.9c.23,.06,.52,.08,.86,.08,1.26,0,2.03-.61,2.03-1.73s-.76-1.58-1.91-1.58c-.46,0-.8,.04-.98,.08v3.14Z"/>
    <path class="cls-1" d="M227.27,45.7h1.04v7.21h3.45v.88h-4.5v-8.08Z"/>
    <path class="cls-1" d="M237.12,50h-3.14v2.91h3.5v.88h-4.55v-8.08h4.37v.88h-3.32v2.55h3.14v.86Z"/>
    <path class="cls-1" d="M245.65,50.24c-.06-1.13-.13-2.48-.12-3.49h-.04c-.28,.95-.61,1.96-1.02,3.07l-1.43,3.92h-.79l-1.31-3.85c-.38-1.14-.71-2.18-.94-3.14h-.02c-.02,1.01-.08,2.36-.16,3.57l-.22,3.47h-1l.56-8.08h1.33l1.38,3.91c.34,1,.61,1.88,.82,2.72h.04c.2-.82,.49-1.7,.85-2.72l1.44-3.91h1.33l.5,8.08h-1.02l-.2-3.55Z"/>
    <path class="cls-1" d="M252.67,50h-3.14v2.91h3.5v.88h-4.55v-8.08h4.37v.88h-3.32v2.55h3.14v.86Z"/>
    <path class="cls-1" d="M254.39,53.79v-8.08h1.14l2.59,4.09c.6,.95,1.07,1.8,1.45,2.63h.02c-.1-1.09-.12-2.08-.12-3.33v-3.38h.98v8.08h-1.06l-2.57-4.1c-.56-.9-1.1-1.82-1.51-2.7h-.04c.06,1.03,.08,2,.08,3.35v3.45h-.98Z"/>
    <path class="cls-1" d="M263.82,46.59h-2.46v-.89h5.99v.89h-2.47v7.2h-1.06v-7.2Z"/>
    <path class="cls-1" d="M268.65,51.25l-.84,2.54h-1.08l2.75-8.08h1.26l2.76,8.08h-1.12l-.86-2.54h-2.87Zm2.65-.82l-.79-2.33c-.18-.53-.3-1.01-.42-1.47h-.02c-.12,.48-.25,.97-.41,1.46l-.79,2.34h2.43Z"/>
    <path class="cls-1" d="M275.3,46.59h-2.46v-.89h5.98v.89h-2.47v7.2h-1.05v-7.2Z"/>
    <path class="cls-1" d="M280.77,45.7v8.08h-1.04v-8.08h1.04Z"/>
    <path class="cls-1" d="M289.51,49.66c0,2.78-1.69,4.26-3.75,4.26s-3.63-1.66-3.63-4.1c0-2.57,1.6-4.25,3.75-4.25s3.63,1.69,3.63,4.09Zm-6.27,.13c0,1.73,.93,3.27,2.58,3.27s2.59-1.52,2.59-3.36c0-1.61-.84-3.29-2.58-3.29s-2.59,1.59-2.59,3.37Z"/>
    <path class="cls-1" d="M290.87,53.79v-8.08h1.14l2.59,4.09c.6,.95,1.07,1.8,1.45,2.63h.02c-.1-1.09-.12-2.08-.12-3.33v-3.38h.98v8.08h-1.05l-2.57-4.1c-.56-.9-1.1-1.82-1.51-2.7h-.04c.06,1.03,.08,2,.08,3.35v3.45h-.98Z"/>
  </g>
</svg>